<?xml version="1.0" encoding="utf-8"?>
<!-- Generator: Adobe Illustrator 25.0.0, SVG Export Plug-In . SVG Version: 6.00 Build 0)  -->
<svg version="1.1" id="Livello_1" xmlns="http://www.w3.org/2000/svg" xmlns:xlink="http://www.w3.org/1999/xlink" x="0px" y="0px"
	 viewBox="0 0 323.9 276.2" style="enable-background:new 0 0 323.9 276.2;" xml:space="preserve">
<style type="text/css">
	.st0{fill:#8C134E;stroke:#FFFFFF;stroke-width:4.6655;stroke-miterlimit:10;}
</style>
<g>
	<g>
		
			<image style="overflow:visible;opacity:0.56;enable-background:new    ;" width="1358" height="1158" xlink:href="CFA29FB5.png"  transform="matrix(0.2385 0 0 0.2385 6.0004 0)">
		</image>
		<g>
			<g>
				<g>
					<g>
						<polygon class="st0" points="268,10.9 230.1,32.7 230.1,55.1 161,10.9 123.2,32.7 123.1,55.1 54,10.9 16.2,32.7 16.1,76.5 
							54,98.3 91.8,76.5 91.9,54 161,98.3 198.8,76.5 198.8,54.3 267.9,98.3 305.8,76.5 305.8,32.8 						"/>
						<polygon class="st0" points="176.6,112.2 176.6,134.4 107.5,90.3 69.7,112.2 69.6,155.9 107.5,177.8 145.3,155.9 145.3,133.7 
							214.5,177.8 252.3,155.9 252.3,112.2 214.5,90.3 						"/>
						<polygon class="st0" points="123.2,185.9 123.1,229.6 161,251.5 198.8,229.6 198.9,185.9 161,164.1 						"/>
					</g>
				</g>
			</g>
		</g>
	</g>
</g>
</svg>
